<?xml version="1.0" encoding="utf-8"?>
<!-- Generator: Adobe Illustrator 26.3.1, SVG Export Plug-In . SVG Version: 6.00 Build 0)  -->
<svg version="1.1" id="Layer_1" xmlns="http://www.w3.org/2000/svg" xmlns:xlink="http://www.w3.org/1999/xlink" x="0px" y="0px"
	 viewBox="0 0 5305 365" style="enable-background:new 0 0 5305 365;" xml:space="preserve">
<style type="text/css">
	.st0{fill:#FF4B59;}
</style>
<g>
	<circle class="st0" cx="60" cy="167" r="119"/>
</g>
<rect y="96" class="st0" width="1920" height="269"/>
<g>
	<circle class="st0" cx="225" cy="162" r="119"/>
</g>
<g>
	<circle class="st0" cx="321" cy="145" r="119"/>
</g>
<g>
	<circle class="st0" cx="474" cy="162" r="119"/>
</g>
<g>
	<circle class="st0" cx="571" cy="129" r="119"/>
</g>
<g>
	<circle class="st0" cx="715" cy="145" r="119"/>
</g>
<g>
	<circle class="st0" cx="872" cy="145" r="119"/>
</g>
<g>
	<circle class="st0" cx="967" cy="167" r="119"/>
</g>
<g>
	<circle class="st0" cx="1110" cy="162" r="119"/>
</g>
<g>
	<circle class="st0" cx="1259" cy="123" r="119"/>
</g>
<g>
	<circle class="st0" cx="1412" cy="145" r="119"/>
</g>
<g>
	<circle class="st0" cx="1562" cy="145" r="119"/>
</g>
<g>
	<circle class="st0" cx="1681" cy="141" r="119"/>
</g>
<g>
	<circle class="st0" cx="1809" cy="129" r="119"/>
</g>
<g>
	<circle class="st0" cx="1894" cy="136" r="119"/>
</g>
<g>
	<circle class="st0" cx="132" cy="157" r="119"/>
</g>
<g>
	<circle class="st0" cx="1967" cy="173" r="119"/>
</g>
<rect x="1907" y="102" class="st0" width="1920" height="269"/>
<g>
	<circle class="st0" cx="2132" cy="168" r="119"/>
</g>
<g>
	<circle class="st0" cx="2228" cy="151" r="119"/>
</g>
<g>
	<circle class="st0" cx="2381" cy="168" r="119"/>
</g>
<g>
	<circle class="st0" cx="2478" cy="135" r="119"/>
</g>
<g>
	<circle class="st0" cx="2622" cy="151" r="119"/>
</g>
<g>
	<circle class="st0" cx="2779" cy="151" r="119"/>
</g>
<g>
	<circle class="st0" cx="2874" cy="173" r="119"/>
</g>
<g>
	<circle class="st0" cx="3017" cy="168" r="119"/>
</g>
<g>
	<circle class="st0" cx="3166" cy="129" r="119"/>
</g>
<g>
	<circle class="st0" cx="3319" cy="151" r="119"/>
</g>
<g>
	<circle class="st0" cx="3469" cy="151" r="119"/>
</g>
<g>
	<circle class="st0" cx="3588" cy="147" r="119"/>
</g>
<g>
	<circle class="st0" cx="3716" cy="135" r="119"/>
</g>
<g>
	<circle class="st0" cx="3801" cy="142" r="119"/>
</g>
<g>
	<circle class="st0" cx="2039" cy="163" r="119"/>
</g>
<g>
	<circle class="st0" cx="1967.9" cy="164.1" r="119"/>
</g>
<rect x="1907.9" y="93.1" class="st0" width="1920" height="269"/>
<g>
	<circle class="st0" cx="2132.9" cy="159.1" r="119"/>
</g>
<g>
	<circle class="st0" cx="2228.9" cy="142.1" r="119"/>
</g>
<g>
	<circle class="st0" cx="2381.9" cy="159.1" r="119"/>
</g>
<g>
	<circle class="st0" cx="2478.9" cy="126.1" r="119"/>
</g>
<g>
	<circle class="st0" cx="2622.9" cy="142.1" r="119"/>
</g>
<g>
	<circle class="st0" cx="2779.9" cy="142.1" r="119"/>
</g>
<g>
	<circle class="st0" cx="2874.9" cy="164.1" r="119"/>
</g>
<g>
	<circle class="st0" cx="3017.9" cy="159.1" r="119"/>
</g>
<g>
	<circle class="st0" cx="3166.9" cy="120.1" r="119"/>
</g>
<g>
	<circle class="st0" cx="3319.9" cy="142.1" r="119"/>
</g>
<g>
	<circle class="st0" cx="3469.9" cy="142.1" r="119"/>
</g>
<g>
	<circle class="st0" cx="3588.9" cy="138.1" r="119"/>
</g>
<g>
	<circle class="st0" cx="3716.9" cy="126.1" r="119"/>
</g>
<g>
	<circle class="st0" cx="3801.9" cy="133.1" r="119"/>
</g>
<g>
	<circle class="st0" cx="2039.9" cy="154.1" r="119"/>
</g>
<g>
	<circle class="st0" cx="3869" cy="172" r="119"/>
</g>
<rect x="3809" y="101" class="st0" width="1920" height="269"/>
<g>
	<circle class="st0" cx="4034" cy="167" r="119"/>
</g>
<g>
	<circle class="st0" cx="4130" cy="150" r="119"/>
</g>
<g>
	<circle class="st0" cx="4283" cy="167" r="119"/>
</g>
<g>
	<circle class="st0" cx="4380" cy="134" r="119"/>
</g>
<g>
	<circle class="st0" cx="4524" cy="150" r="119"/>
</g>
<g>
	<circle class="st0" cx="4681" cy="150" r="119"/>
</g>
<g>
	<circle class="st0" cx="4776" cy="172" r="119"/>
</g>
<g>
	<circle class="st0" cx="4919" cy="167" r="119"/>
</g>
<g>
	<circle class="st0" cx="5068" cy="128" r="119"/>
</g>
<g>
	<circle class="st0" cx="5221" cy="150" r="119"/>
</g>
<g>
	<circle class="st0" cx="5371" cy="150" r="119"/>
</g>
<g>
	<circle class="st0" cx="5490" cy="146" r="119"/>
</g>
<g>
	<circle class="st0" cx="5618" cy="134" r="119"/>
</g>
<g>
	<circle class="st0" cx="5703" cy="141" r="119"/>
</g>
<g>
	<circle class="st0" cx="3941" cy="162" r="119"/>
</g>
</svg>
