<?xml version="1.0" encoding="utf-8"?>
<!-- Generator: Adobe Illustrator 26.3.1, SVG Export Plug-In . SVG Version: 6.00 Build 0)  -->
<svg version="1.1" id="Layer_1" xmlns="http://www.w3.org/2000/svg" xmlns:xlink="http://www.w3.org/1999/xlink" x="0px" y="0px"
	 viewBox="0 0 629 1076.8" style="enable-background:new 0 0 629 1076.8;" xml:space="preserve">
<style type="text/css">
	.st0{fill:none;stroke:#D2A56D;stroke-width:8;stroke-miterlimit:10;}
	.st1{fill:#83502E;}
	.st2{fill:#96613D;}
	.st3{fill:#A0E6FF;}
	.st4{fill:#6FABE2;}
</style>
<path class="st0" d="M443,890.8c0-36.5,2.2-73,6.8-109.1c4.3-33.6,10.7-66.9,19.5-99.6c8-29.7,18-58.9,30.4-87
	c11.1-24.9,24.1-49,39.8-71.3c13.6-19.3,29.3-37.4,47.6-52.5c2-1.7,4.1-3.3,6.2-4.9"/>
<path class="st0" d="M184,890.8c0-232.1-55-420-123-420"/>
<g>
	<path class="st1" d="M439.8,876.8H176.2c-10.6,0-19.2,8.6-19.2,19.2v136.5c0,10.6,8.6,19.2,19.2,19.2h263.5
		c10.6,0,19.2-8.6,19.2-19.2V896.1C459,885.5,450.4,876.8,439.8,876.8z"/>
</g>
<path class="st0" d="M161,920.8c0-102-11-203-41-302c-3-7-5-15-8-22c-10-26-22-51-39.4-73.3"/>
<path class="st0" d="M415,920.8c0-223.9,32.2-405,72-405"/>
<g>
	<path class="st2" d="M423.8,901.8H160.2c-10.6,0-19.2,8.6-19.2,19.2v136.5c0,10.6,8.6,19.2,19.2,19.2h263.5
		c10.6,0,19.2-8.6,19.2-19.2V921.1C443,910.5,434.4,901.8,423.8,901.8z"/>
</g>
<path class="st3" d="M599.4,194.8H29.6C79.8,79.6,188.5-0.2,314.5-0.2S549.2,79.6,599.4,194.8z"/>
<path class="st3" d="M29.2,480.8h570.7c-50,115.7-158.9,196-285.3,196S79.1,596.6,29.2,480.8z"/>
<path class="st3" d="M629,338.3c0,6.6-0.2,13.1-0.5,19.5H0.5C0.2,351.4,0,344.9,0,338.3c0-6.9,0.2-13.7,0.6-20.5h627.9
	C628.8,324.6,629,331.5,629,338.3z"/>
<path class="st4" d="M628.5,357.8c-2.3,43.7-12.3,85.3-28.6,123H29.2c-16.3-37.7-26.3-79.3-28.6-123H628.5z"/>
<path class="st4" d="M628.4,317.8H0.6c2.4-43.8,12.6-85.3,29-123h569.8C615.8,232.6,626,274.1,628.4,317.8z"/>
</svg>
