<?xml version="1.0" encoding="utf-8"?>
<!-- Generator: Adobe Illustrator 26.3.1, SVG Export Plug-In . SVG Version: 6.00 Build 0)  -->
<svg version="1.1" id="Layer_1" xmlns="http://www.w3.org/2000/svg" xmlns:xlink="http://www.w3.org/1999/xlink" x="0px" y="0px"
	 viewBox="0 0 1920 1080" style="enable-background:new 0 0 1920 1080;" xml:space="preserve">
<style type="text/css">
	.st0{fill:#596A63;}
	.st1{fill:#782B19;}
</style>
<g>
	<rect x="0.5" y="0.5" class="st0" width="1919" height="1079"/>
	<path d="M1919,1v1078H1V1H1919 M1920,0H0v1080h1920V0L1920,0z"/>
</g>
<g>
	<circle class="st1" cx="303.5" cy="274.5" r="142.5"/>
</g>
<circle class="st1" cx="423.5" cy="299.5" r="131.5"/>
<circle class="st1" cx="493.5" cy="247.5" r="127.5"/>
<circle class="st1" cx="554" cy="314" r="103"/>
<circle class="st1" cx="1253" cy="21" r="99"/>
<circle class="st1" cx="1325" cy="91" r="105"/>
<circle class="st1" cx="1418.5" cy="38.5" r="93.5"/>
<circle class="st1" cx="1481" cy="35" r="122"/>
<circle class="st1" cx="1200" cy="17" r="103"/>
<circle class="st1" cx="1159.5" cy="40.5" r="110.5"/>
<circle class="st1" cx="1600.5" cy="408.5" r="112.5"/>
<circle class="st1" cx="1537.5" cy="427.5" r="119.5"/>
<circle class="st1" cx="1677.5" cy="492.5" r="89.5"/>
<circle class="st1" cx="1756.5" cy="366.5" r="99.5"/>
<circle class="st1" cx="1429" cy="402" r="104"/>
<circle class="st1" cx="1598.5" cy="350.5" r="103.5"/>
<circle class="st1" cx="269.5" cy="761.5" r="108.5"/>
<circle class="st1" cx="369.5" cy="752.5" r="123.5"/>
<circle class="st1" cx="479" cy="790" r="110"/>
<circle class="st1" cx="558.5" cy="667.5" r="122.5"/>
<circle class="st1" cx="608.5" cy="772.5" r="109.5"/>
<circle class="st1" cx="1186.5" cy="855.5" r="83.5"/>
<circle class="st1" cx="1257" cy="830" r="102"/>
<circle class="st1" cx="1349.5" cy="873.5" r="73.5"/>
<circle class="st1" cx="1434.5" cy="874.5" r="102.5"/>
<circle class="st1" cx="1463" cy="751" r="131"/>
<circle class="st1" cx="965" cy="537" r="67"/>
<circle class="st1" cx="1029" cy="575" r="54"/>
<circle class="st1" cx="1071.5" cy="513.5" r="61.5"/>
<circle class="st1" cx="1789" cy="989" r="55"/>
<circle class="st1" cx="1829" cy="1004" r="54"/>
<circle class="st1" cx="1942.5" cy="1039.5" r="133.5"/>
<circle class="st1" cx="1764.5" cy="1091.5" r="79.5"/>
<circle class="st1" cx="1810" cy="1013" r="97"/>
<circle class="st1" cx="-11.5" cy="955.5" r="112.5"/>
<circle class="st1" cx="60" cy="1009" r="101"/>
<circle class="st1" cx="149" cy="1062" r="48"/>
</svg>
