<?xml version="1.0" encoding="utf-8"?>
<!-- Generator: Adobe Illustrator 26.3.1, SVG Export Plug-In . SVG Version: 6.00 Build 0)  -->
<svg version="1.1" id="Layer_1" xmlns="http://www.w3.org/2000/svg" xmlns:xlink="http://www.w3.org/1999/xlink" x="0px" y="0px"
	 viewBox="0 0 1920 1080" style="enable-background:new 0 0 1920 1080;" xml:space="preserve">
<style type="text/css">
	.st0{fill:#333333;}
	.st1{fill:#FF4B59;}
	.st2{fill:#FF7B89;}
	.st3{fill:none;stroke:#FF4B59;stroke-width:40;stroke-miterlimit:10;}
</style>
<g>
	<rect x="0.5" y="0.5" class="st0" width="1919" height="1079"/>
	<path d="M1919,1v1078H1V1H1919 M1920,0H0v1080h1920V0L1920,0z"/>
</g>
<g>
	<path class="st1" d="M610,143c38.66,0,76.19,8.36,111.54,24.85c34.45,16.07,65.46,39.16,92.17,68.63
		c26.97,29.75,48.17,64.45,63.01,103.16C892.17,379.92,900,422.77,900,467s-7.83,87.08-23.28,127.36
		c-14.84,38.7-36.04,73.41-63.01,103.16c-26.71,29.47-57.72,52.55-92.17,68.63C686.19,782.64,648.66,791,610,791
		s-76.19-8.36-111.54-24.85c-34.45-16.07-65.46-39.16-92.17-68.63c-26.97-29.75-48.17-64.45-63.01-103.16
		C327.83,554.08,320,511.23,320,467s7.83-87.08,23.28-127.36c14.84-38.7,36.04-73.41,63.01-103.16
		c26.71-29.47,57.72-52.55,92.17-68.63C533.81,151.36,571.34,143,610,143 M610,103c-182.25,0-330,162.97-330,364s147.75,364,330,364
		s330-162.97,330-364S792.25,103,610,103L610,103z"/>
</g>
<g>
	<path class="st2" d="M611.25,234.97c56.6,0,110.04,24.56,150.48,69.16c20.05,22.12,35.82,47.95,46.87,76.76
		c11.52,30.05,17.37,62.03,17.37,95.04s-5.84,64.99-17.37,95.04c-11.05,28.81-26.82,54.64-46.87,76.76
		c-40.43,44.6-93.87,69.16-150.48,69.16s-110.04-24.56-150.48-69.16c-20.05-22.12-35.82-47.95-46.87-76.76
		c-11.52-30.05-17.37-62.03-17.37-95.04s5.84-64.99,17.37-95.04c11.05-28.81,26.82-54.64,46.87-76.76
		C501.21,259.53,554.65,234.97,611.25,234.97 M611.25,194.97c-140.67,0-254.71,125.79-254.71,280.96s114.04,280.96,254.71,280.96
		S865.97,631.1,865.97,475.93S751.93,194.97,611.25,194.97L611.25,194.97z"/>
</g>
<g>
	<path class="st3" d="M657.5,639.5c0,105.57,126.35,191,282.5,191"/>
</g>
<g>
	<path class="st1" d="M1337,151c38.66,0,76.19,8.36,111.54,24.85c34.45,16.07,65.46,39.16,92.17,68.63
		c26.97,29.75,48.17,64.45,63.01,103.16C1619.17,387.92,1627,430.77,1627,475s-7.83,87.08-23.28,127.36
		c-14.84,38.7-36.04,73.41-63.01,103.16c-26.71,29.47-57.72,52.55-92.17,68.63C1413.19,790.64,1375.66,799,1337,799
		c-38.66,0-76.19-8.36-111.54-24.85c-34.45-16.07-65.46-39.16-92.17-68.63c-26.97-29.75-48.17-64.45-63.01-103.16
		C1054.83,562.08,1047,519.23,1047,475s7.83-87.08,23.28-127.36c14.84-38.7,36.04-73.41,63.01-103.16
		c26.71-29.47,57.72-52.55,92.17-68.63C1260.81,159.36,1298.34,151,1337,151 M1337,111c-182.25,0-330,162.97-330,364
		s147.75,364,330,364s330-162.97,330-364S1519.25,111,1337,111L1337,111z"/>
</g>
<g>
	<path class="st2" d="M1337.31,233.96c56.6,0,110.04,24.56,150.48,69.16c20.05,22.12,35.82,47.95,46.87,76.76
		c11.52,30.05,17.36,62.03,17.36,95.04s-5.84,64.99-17.36,95.04c-11.05,28.81-26.82,54.64-46.87,76.76
		c-40.43,44.6-93.87,69.16-150.48,69.16s-110.04-24.56-150.48-69.16c-20.05-22.12-35.82-47.95-46.87-76.76
		c-11.52-30.05-17.37-62.03-17.37-95.04s5.84-64.99,17.37-95.04c11.05-28.81,26.82-54.64,46.87-76.76
		C1227.27,258.52,1280.71,233.96,1337.31,233.96 M1337.31,193.96c-140.67,0-254.71,125.79-254.71,280.96
		s114.04,280.96,254.71,280.96s254.71-125.79,254.71-280.96S1477.99,193.96,1337.31,193.96L1337.31,193.96z"/>
</g>
<g>
	<path class="st0" d="M1576,819c-22.48,0-44.57-8.23-65.65-24.45c-21.62-16.64-41.21-40.79-58.24-71.79
		C1415.93,656.91,1396,568.92,1396,475s19.93-181.91,56.11-247.76c17.03-31,36.63-55.15,58.24-71.79
		c21.08-16.23,43.17-24.45,65.65-24.45s44.57,8.23,65.65,24.45c21.62,16.64,41.21,40.79,58.24,71.79
		C1736.07,293.09,1756,381.08,1756,475s-19.93,181.91-56.11,247.76c-17.03,31-36.63,55.15-58.24,71.79
		C1620.57,810.77,1598.48,819,1576,819z"/>
	<path class="st0" d="M1576,151c17.97,0,35.95,6.83,53.45,20.3c19.14,14.74,37.44,37.41,52.92,65.57
		c16.6,30.22,29.71,65.71,38.96,105.49C1731.06,384.28,1736,428.9,1736,475s-4.94,90.72-14.68,132.63
		c-9.24,39.78-22.35,75.27-38.96,105.49c-15.47,28.16-33.77,50.84-52.92,65.57c-17.5,13.47-35.48,20.3-53.45,20.3
		s-35.95-6.83-53.45-20.3c-19.14-14.74-37.44-37.41-52.92-65.57c-16.6-30.22-29.71-65.71-38.96-105.49
		C1420.94,565.72,1416,521.1,1416,475s4.94-90.72,14.68-132.63c9.24-39.78,22.35-75.27,38.96-105.49
		c15.47-28.16,33.77-50.84,52.92-65.57C1540.05,157.83,1558.03,151,1576,151 M1576,111c-110.46,0-200,162.97-200,364
		s89.54,364,200,364s200-162.97,200-364S1686.46,111,1576,111L1576,111z"/>
</g>
<g>
	
		<rect x="1438.34" y="657.3" transform="matrix(0.9232 -0.3844 0.3844 0.9232 -167.03 624.5351)" class="st0" width="81" height="145.63"/>
	<path class="st0" d="M1477.47,673.48l40.6,97.51l-37.85,15.76l-40.6-97.51L1477.47,673.48 M1499.02,621.18l-111.7,46.51
		l71.35,171.37l111.7-46.51L1499.02,621.18L1499.02,621.18z"/>
</g>
<g>
	
		<rect x="1405.76" y="171.95" transform="matrix(0.4334 -0.9012 0.9012 0.4334 646.2634 1452.8406)" class="st0" width="145.63" height="81"/>
	<path class="st0" d="M1482.99,155.97l36.95,17.77l-45.78,95.19l-36.95-17.77L1482.99,155.97 M1470.04,106.7
		c-4.58,0-8.97,2.57-11.09,6.97l-69.79,145.12c-2.94,6.12-0.37,13.47,5.75,16.41l86.88,41.78c1.72,0.83,3.53,1.22,5.32,1.22
		c4.58,0,8.98-2.57,11.09-6.97l69.79-145.12c2.94-6.12,0.37-13.47-5.75-16.41l-86.88-41.78
		C1473.64,107.09,1471.83,106.7,1470.04,106.7L1470.04,106.7z"/>
</g>
</svg>
